<svg width="57" height="101" viewBox="0 0 57 101" fill="none" xmlns="http://www.w3.org/2000/svg">
<path d="M49.062 11.0868V8.00302C49.0851 1.05925 40.5688 -2.57822 35.4839 2.10783C32.527 -0.686982 27.488 -0.68629 24.5322 2.10783C19.9428 -2.12903 12.2736 0.394123 11.1075 6.45196C5.96588 4.30395 -0.116318 8.338 0.00169076 13.8864V43.37C0.00169076 49.7922 3.72826 55.6854 9.44137 58.5611L10.3711 123.892C10.3711 125.326 11.5466 126.488 12.9974 126.488C14.4482 126.488 15.6237 125.326 15.6237 123.892L14.694 56.8755C14.694 55.7964 14.0185 54.8302 12.9974 54.4482C8.36599 52.7154 5.25432 48.2633 5.25432 43.37V26.5413C8.0081 27.6314 11.5067 26.9161 13.5798 24.9421C16.5366 27.7369 21.576 27.7366 24.5318 24.9421C25.9749 26.2523 27.8981 27.0541 30.0079 27.0541H40.0835V30.5916C34.8708 32.4738 29.9918 37.6544 29.9918 44.8594C29.9918 46.2928 31.1673 47.4549 32.6181 47.4549C34.0689 47.4549 35.2444 46.2928 35.2444 44.8594C35.2444 39.4723 39.3373 35.8161 43.1885 35.1112C44.4334 34.8831 45.3365 33.8103 45.3365 32.559V24.4583C45.3365 23.0249 44.1609 21.8628 42.7101 21.8628H30.0079C28.4366 21.8628 27.1581 20.5994 27.1581 19.0466C27.1581 17.4938 28.4363 16.2303 30.0079 16.2303H48.1862C49.7574 16.2303 51.0359 17.4935 51.0359 19.0466V43.37C51.0359 48.2633 47.9239 52.7151 43.2928 54.4482C42.2717 54.8302 41.5962 55.7964 41.5962 56.8755L42.526 123.892C42.526 125.326 43.7015 126.488 45.1523 126.488C46.6031 126.488 47.7786 125.326 47.7786 123.892L46.8489 58.5611C52.562 55.6854 56.2886 49.7922 56.2886 43.37V19.0466C56.2886 14.9239 53.1191 11.5201 49.062 11.0868ZM40.9596 5.18675C42.5309 5.18675 43.8093 6.44988 43.8093 8.00302V11.0394H38.1102V8.00302C38.1102 6.45023 39.3884 5.18675 40.9596 5.18675ZM8.1037 21.8628C6.53246 21.8628 5.25397 20.5997 5.25397 19.0466V18.8099V13.8861C5.39755 10.1541 10.8109 10.1573 10.9531 13.8861V19.0466C10.9534 20.5997 9.67529 21.8628 8.1037 21.8628ZM19.0561 21.8628C17.4849 21.8628 16.2061 20.5997 16.2061 19.0466V13.8861V8.00302C16.3496 4.27141 21.7634 4.27384 21.9055 8.00302V19.0466C21.9055 20.5997 20.6274 21.8628 19.0561 21.8628ZM27.1581 11.5522V8.00335C27.3017 4.27141 32.7151 4.27452 32.8573 8.00335V11.0397H30.0075C29.0053 11.0394 28.0451 11.2214 27.1581 11.5522Z" fill="black"/>
</svg>
